<svg width="41" height="43" viewBox="0 0 41 43" fill="none" xmlns="http://www.w3.org/2000/svg">
<path d="M27.4819 13.1774C26.2976 5.43569 23.5045 0 20.2541 0C17.0036 0 14.2105 5.43569 13.0263 13.1774H27.4819ZM12.4138 21.5C12.4138 23.4246 12.5118 25.2712 12.6833 27.0484H27.8167C27.9882 25.2712 28.0862 23.4246 28.0862 21.5C28.0862 19.5754 27.9882 17.7288 27.8167 15.9516H12.6833C12.5118 17.7288 12.4138 19.5754 12.4138 21.5ZM38.9319 13.1774C36.5962 7.29093 31.8675 2.73952 26.0281 0.901613C28.0209 3.83185 29.3929 8.24456 30.1116 13.1774H38.9319ZM14.4719 0.901613C8.64065 2.73952 3.90381 7.29093 1.57623 13.1774H10.3966C11.1071 8.24456 12.4791 3.83185 14.4719 0.901613ZM39.8058 15.9516H30.4383C30.6098 17.7722 30.7078 19.6361 30.7078 21.5C30.7078 23.3639 30.6098 25.2278 30.4383 27.0484H39.7976C40.2468 25.2712 40.5 23.4246 40.5 21.5C40.5 19.5754 40.2468 17.7288 39.8058 15.9516ZM9.80036 21.5C9.80036 19.6361 9.89837 17.7722 10.0699 15.9516H0.702359C0.261343 17.7288 0 19.5754 0 21.5C0 23.4246 0.261343 25.2712 0.702359 27.0484H10.0617C9.89837 25.2278 9.80036 23.3639 9.80036 21.5ZM13.0263 29.8226C14.2105 37.5643 17.0036 43 20.2541 43C23.5045 43 26.2976 37.5643 27.4819 29.8226H13.0263ZM26.0363 42.0984C31.8675 40.2605 36.6044 35.7091 38.9401 29.8226H30.1198C29.4011 34.7554 28.029 39.1681 26.0363 42.0984ZM1.57623 29.8226C3.91198 35.7091 8.64065 40.2605 14.48 42.0984C12.4873 39.1681 11.1152 34.7554 10.3966 29.8226H1.57623Z" fill="black"/>
</svg>
